<svg xmlns="http://www.w3.org/2000/svg" viewBox="0 0 814.42 766.15"><defs><style>.cls-1{fill:#9c9b9b;}</style></defs><g id="Camada_2" data-name="Camada 2"><g id="Camada_4" data-name="Camada 4"><path class="cls-1" d="M811.16,328.51a320.17,320.17,0,0,0-9.55-46.74c-2-6.81-4.37-14.87-7.57-23-2.79-7.12-6-14.35-9.91-22.13a296.33,296.33,0,0,0-93.85-108.28c-6.67-4.74-13.53-9.14-20.34-13.08-3.82-2.24-7.26-4.18-10.62-6L649.16,104C638,98.12,628.92,89.85,623,80.11l-.06-.1a35,35,0,0,1-3.53-6.82l-.07-.18a12.77,12.77,0,0,1-.55-1.73l.94-1.11.72-.88a37.88,37.88,0,0,0,4.84-7.12,29,29,0,0,0,3.22-14l0-.94-.37-.85a177.25,177.25,0,0,0-12.72-24.11L601.26,0,585.54,21.14Q571.73,39.59,557.84,58c-17.31,23-35.22,46.78-52.61,70.35l-4.5,6.12a165.65,165.65,0,0,0-44.17-16.26,258.52,258.52,0,0,0-50.92-5.82q-3.15-.06-6.3-.06c-30.17,0-61.92,4.18-94.39,12.41C238,141.88,176.27,174,126.31,217.65a371.51,371.51,0,0,0-66.67,76.69C42,321.5,28,352.69,17.93,387.07a457,457,0,0,0-17.07,100,468.24,468.24,0,0,0-.32,50.81c.83,15.26,2.27,33.24,6.67,51,1.11,4.17,2.41,8.22,3.65,12.13s2.51,7.86,3.56,11.82a145.15,145.15,0,0,1,4.52,23.37v.12c1.23,9.48.78,19.07.31,29.23-.3,6.48-.61,13.18-.46,19.9A187.63,187.63,0,0,0,21,711.41c1.14,7.59,3.05,17.43,7.85,26.3a60.62,60.62,0,0,0,19.1,21,41.54,41.54,0,0,0,13.79,6.32,38.5,38.5,0,0,0,9.17,1.08,42.46,42.46,0,0,0,6.08-.44c7.87-1.11,14.81-3.73,21.53-6.26,1.32-.49,2.64-1,4-1.48,8.21-3.08,15.14-5.31,22.32-6.17h.11a100.61,100.61,0,0,1,14.21-1,124.64,124.64,0,0,1,32.39,4.55c3,.75,6,1.65,9.13,2.59a150.3,150.3,0,0,0,15.43,4,138.28,138.28,0,0,0,26.26,2.29c15.34,0,31.6-2,51.19-6.3,30.8-7,62-18.29,95.49-34.45,15-7.28,29.93-15.48,44.45-24.38,13-8,26.24-17.14,41.76-28.68,28.53-21.52,53.28-45,73.52-69.77a382.71,382.71,0,0,0,45-67.23c1.46,3.44,3,6.91,4.77,10.32,4.13,8,8.3,15.21,12.74,22.14,17.18,27.09,39.89,52.22,67.52,74.74a415.13,415.13,0,0,0,84.74,52l2.22-4.34,4.86.24a430.58,430.58,0,0,1,17.31-87.84c3.6-11.61,7.79-22.76,12.22-34.57q1.49-3.93,2.95-7.88c6.31-16.87,10.9-30.92,14.44-44.19a492.21,492.21,0,0,0,15.37-91.94C815.38,384.33,814.86,355.44,811.16,328.51ZM225.53,728.71c-1,0-2.08,0-3.07,0A114,114,0,0,1,203,726.74l-.19,0a110.8,110.8,0,0,1-11.31-3.08c-3.31-1-7.07-2.16-10.8-3.14A159.17,159.17,0,0,0,138,714.43,132.2,132.2,0,0,0,120,715.65l-3.9.5-4.39.82c-2.77.61-5.47,1.28-8,2-5.47,1.53-10.36,3.25-14.08,4.6-3.34,1.27-13.48,5.15-17.5,5.62h-.13l-.13,0a7.78,7.78,0,0,1-1.24.13,1.73,1.73,0,0,1-.37,0l-.14,0a7.08,7.08,0,0,1-1.74-.95A25.67,25.67,0,0,1,64,724.62a18.92,18.92,0,0,1-3-4.14l-.09-.16c-1.79-3.11-3-7.16-4.12-14.46a154.69,154.69,0,0,1-1.93-21c-.14-6.62.11-13.39.4-21.24l.08-2c.2-4,.24-8.83.11-14.39v-.11c-.23-5.17-.64-10.15-1.22-14.82a179.11,179.11,0,0,0-6.12-28.67c-1.41-4.93-3.09-9.83-4.56-14.16-1.2-3.48-2.32-6.77-3.07-9.38a161.05,161.05,0,0,1-4.21-21c-1-7.16-1.82-14.91-2.43-23-1.13-17.45-1.51-32.93-1.17-47.33A425.44,425.44,0,0,1,45.09,394.8c8.16-32.23,20.08-61.55,35.46-87.17a344.79,344.79,0,0,1,59.9-74.15,401,401,0,0,1,168.36-94.15c32.35-9,63.34-13.5,92.12-13.5l4.5,0a248.48,248.48,0,0,1,48.28,5.1c17.4,3.76,32,9.24,44.61,16.74,3.74,2.29,7.71,5,12.16,8.35,1.8,1.33,3.71,2.81,5.85,4.55,1.64,1.32,3.4,2.79,4.88,4.05l0,.08.76.65a207.19,207.19,0,0,1,30.8,33.12c3.52,4.69,7,9.74,10.26,15l-.24.66c-.89,2.44-1.8,5-2.54,7.57a417.53,417.53,0,0,0-11.63,49.67,548.92,548.92,0,0,0-7.48,100.34c.59,36.56,4.46,69.31,11.84,100.11,1.38,5.8,3,11.74,4.68,17.64l3.77,20.14c-28.28,54-70.86,101.6-123.25,137.84-6,4.12-12.36,8.4-20.17,13.44-6.3,4-12.95,8.06-20.34,12.27-13.7,7.75-28,14.94-42.51,21.36-35,15.12-63.36,24.53-89.1,29.62C250.77,727.23,237.5,728.71,225.53,728.71ZM550.36,174.82,556,161.88c5.27-12,12.37-27.71,20.57-42.38,2.44-4.32,4.71-8,6.84-11.17.22,1.16.44,2.32.63,3.48a153,153,0,0,1,1.72,21.64,129.92,129.92,0,0,1-7.19,42.3c-1.3,3.71-2.59,7-4,10.06-.74,1.69-1.52,3.31-2.28,4.88l-2.76,6.17-.57,1.29c-1.86-2.67-3.72-5.21-5.61-7.67C559.13,184.85,554.74,179.6,550.36,174.82Zm119.49,453c-26.05-24.38-45.49-48.4-59.46-73.45-3.46-6.1-6.93-13-10.63-20.94-2.14-4.55-3.94-9.45-5.68-14.19-.92-2.51-1.87-5.09-2.87-7.63a319,319,0,0,1-12.13-45.35c-5.61-29.26-8.25-61.05-7.86-94.47a528.88,528.88,0,0,1,9.8-94.46,375.8,375.8,0,0,1,11.45-45.4l0-.11c.67-2.21,1.48-4.34,2.33-6.59.52-1.36,1-2.71,1.53-4.11a96.8,96.8,0,0,1,3.79-9l.46-1,2.39-5c1-2,2-4,3-6.09,1.9-4.13,3.6-8.28,5.21-12.69a163.8,163.8,0,0,0,10.08-53.57c0-1.66,0-3.33,0-5a104.65,104.65,0,0,0,11.8,6.89l10,4.9c3.44,1.78,6.54,3.44,9.43,5.06,6.28,3.59,12.4,7.38,18.16,11.24a265.94,265.94,0,0,1,33.29,26.75,272.26,272.26,0,0,1,52,67.78c3.37,6.26,6.49,12.71,9.25,19.12,2.42,5.79,4.78,12.35,7.21,20.06a297.14,297.14,0,0,1,10,42.16c4.17,26,5.73,54.85,4.78,88.19-.28,12.75-1.38,26.8-3.46,44.21-2.17,17.68-4.38,31.21-7.19,43.95-3.22,16-8,31.36-13.08,47.64-4,12.83-8.13,26.1-11.38,39.6a407.48,407.48,0,0,0-11.24,83.29A433.27,433.27,0,0,1,669.85,627.81Z"/><path class="cls-1" d="M215.35,689.63a9.75,9.75,0,1,0,10.29,9.19A9.75,9.75,0,0,0,215.35,689.63Z"/><circle class="cls-1" cx="238.43" cy="667.69" r="12.51" transform="translate(-196.7 107.94) rotate(-18.21)"/><circle class="cls-1" cx="315.41" cy="644.55" r="22.79" transform="translate(-317.85 307.05) rotate(-35.87)"/><path class="cls-1" d="M277.71,666.11a16.19,16.19,0,1,0,17.09,15.25A16.2,16.2,0,0,0,277.71,666.11Z"/></g></g></svg>